<?xml version="1.0" encoding="UTF-8" standalone="no"?>
<!-- Generator: Adobe Illustrator 18.0.0, SVG Export Plug-In . SVG Version: 6.00 Build 0)  -->

<svg
   xmlns:dc="http://purl.org/dc/elements/1.1/"
   xmlns:cc="http://creativecommons.org/ns#"
   xmlns:rdf="http://www.w3.org/1999/02/22-rdf-syntax-ns#"
   xmlns:svg="http://www.w3.org/2000/svg"
   xmlns="http://www.w3.org/2000/svg"
   xmlns:sodipodi="http://sodipodi.sourceforge.net/DTD/sodipodi-0.dtd"
   xmlns:inkscape="http://www.inkscape.org/namespaces/inkscape"
   version="1.1"
   id="Capa_1"
   x="0px"
   y="0px"
   viewBox="0 0 59 59"
   style="enable-background:new 0 0 59 59;"
   xml:space="preserve"
   sodipodi:docname="object_absence.svg"
   inkscape:version="0.92.5 (2060ec1f9f, 2020-04-08)"
   inkscape:export-filename="/home/john/WWW/dolibarr/htdocs/custom/absence/img/object_absence.png"
   inkscape:export-xdpi="39.724136"
   inkscape:export-ydpi="39.724136"><metadata
   id="metadata47"><rdf:RDF><cc:Work
       rdf:about=""><dc:format>image/svg+xml</dc:format><dc:type
         rdf:resource="http://purl.org/dc/dcmitype/StillImage" /></cc:Work></rdf:RDF></metadata><defs
   id="defs45">
	
	
	
	
</defs><sodipodi:namedview
   pagecolor="#505050"
   bordercolor="#ffffff"
   borderopacity="1"
   objecttolerance="10"
   gridtolerance="10"
   guidetolerance="10"
   inkscape:pageopacity="0"
   inkscape:pageshadow="2"
   inkscape:window-width="1920"
   inkscape:window-height="1011"
   id="namedview43"
   showgrid="false"
   inkscape:zoom="11.313708"
   inkscape:cx="36.375149"
   inkscape:cy="26.651705"
   inkscape:window-x="1920"
   inkscape:window-y="0"
   inkscape:window-maximized="1"
   inkscape:current-layer="Capa_1" />
<path
   inkscape:connector-curvature="0"
   id="path4"
   d="m 46,32.5 c -7.168,0 -13,5.832 -13,13 0,7.168 5.832,13 13,13 7.168,0 13,-5.832 13,-13 0,-7.168 -5.832,-13 -13,-13 z m 0,24 c -6.065,0 -11,-4.935 -11,-11 0,-6.065 4.935,-11 11,-11 6.065,0 11,4.935 11,11 0,6.065 -4.935,11 -11,11 z"
   style="fill:#cb4f24;fill-opacity:1" /><path
   inkscape:connector-curvature="0"
   id="path6"
   d="m 52,5.5 c 0,-0.552 -0.448,-1 -1,-1 h -5 v -3 c 0,-0.553 -0.448,-1 -1,-1 h -7 c -0.552,0 -1,0.447 -1,1 v 3 H 15 v -3 c 0,-0.553 -0.448,-1 -1,-1 H 7 c -0.552,0 -1,0.447 -1,1 v 3 H 1 c -0.552,0 -1,0.448 -1,1 v 9 h 52 z m -39,0 v 3 H 8 v -3 -3 h 5 z m 31,0 v 3 h -5 v -3 -3 h 5 z"
   style="fill:#00384e;fill-opacity:1" /><path
   inkscape:connector-curvature="0"
   id="path8"
   d="m 30,45.5 c 0,-6.882 4.376,-12.746 10.485,-15 H 37 v -8 h 8 v 7.051 c 0.332,-0.021 0.662,-0.051 1,-0.051 2.122,0 4.145,0.424 6,1.178 V 17.5 c 0,-0.553 -0.448,-1 -1,-1 H 1 c -0.552,0 -1,0.447 -1,1 v 39 c 0,0.553 0.448,1 1,1 H 35.453 C 32.118,54.566 30,50.28 30,45.5 Z m -15,5 H 7 v -8 h 8 z m 0,-10 H 7 v -8 h 8 z m 0,-10 H 7 v -8 h 8 z m 10,20 h -7 -1 v -8 h 8 z m 0,-10 h -8 v -8 h 8 z m 0,-10 h -8 v -8 h 1 7 z m 2,-8 h 7 1 v 8 h -8 z"
   style="fill:#00384e;fill-opacity:1" />
<g
   id="g12">
</g>
<g
   id="g14">
</g>
<g
   id="g16">
</g>
<g
   id="g18">
</g>
<g
   id="g20">
</g>
<g
   id="g22">
</g>
<g
   id="g24">
</g>
<g
   id="g26">
</g>
<g
   id="g28">
</g>
<g
   id="g30">
</g>
<g
   id="g32">
</g>
<g
   id="g34">
</g>
<g
   id="g36">
</g>
<g
   id="g38">
</g>
<g
   id="g40">
</g>
<g
   id="g979"
   transform="matrix(0.33414111,0,0,0.33414111,35.981902,36.822369)"
   style="fill:#cb4f24;fill-opacity:1"><path
     id="path924"
     d="M 48.014,42.889 38.461,38.113 C 37.56,37.662 37,36.756 37,35.748 v -3.381 c 0.229,-0.28 0.47,-0.599 0.719,-0.951 1.239,-1.75 2.232,-3.698 2.954,-5.799 C 42.084,24.97 43,23.575 43,22 v -4 c 0,-0.963 -0.36,-1.896 -1,-2.625 V 10.056 C 42.056,9.506 42.276,6.232 39.908,3.531 37.854,1.188 34.521,0 30,0 25.479,0 22.146,1.188 20.092,3.53 17.724,6.231 17.944,9.506 18,10.056 v 5.319 C 17.36,16.104 17,17.037 17,18 v 4 c 0,1.217 0.553,2.352 1.497,3.109 0.916,3.627 2.833,6.36 3.503,7.237 v 3.309 c 0,0.968 -0.528,1.856 -1.377,2.32 l -8.921,4.866 C 8.801,44.424 7,47.458 7,50.762 V 54 c 0,4.746 15.045,6 23,6 7.955,0 23,-1.254 23,-6 v -3.043 c 0,-3.438 -1.911,-6.53 -4.986,-8.068 z"
     inkscape:connector-curvature="0"
     style="fill:#cb4f24;fill-opacity:1" /><g
     id="g926"
     style="fill:#cb4f24;fill-opacity:1">
</g><g
     id="g928"
     style="fill:#cb4f24;fill-opacity:1">
</g><g
     id="g930"
     style="fill:#cb4f24;fill-opacity:1">
</g><g
     id="g932"
     style="fill:#cb4f24;fill-opacity:1">
</g><g
     id="g934"
     style="fill:#cb4f24;fill-opacity:1">
</g><g
     id="g936"
     style="fill:#cb4f24;fill-opacity:1">
</g><g
     id="g938"
     style="fill:#cb4f24;fill-opacity:1">
</g><g
     id="g940"
     style="fill:#cb4f24;fill-opacity:1">
</g><g
     id="g942"
     style="fill:#cb4f24;fill-opacity:1">
</g><g
     id="g944"
     style="fill:#cb4f24;fill-opacity:1">
</g><g
     id="g946"
     style="fill:#cb4f24;fill-opacity:1">
</g><g
     id="g948"
     style="fill:#cb4f24;fill-opacity:1">
</g><g
     id="g950"
     style="fill:#cb4f24;fill-opacity:1">
</g><g
     id="g952"
     style="fill:#cb4f24;fill-opacity:1">
</g><g
     id="g954"
     style="fill:#cb4f24;fill-opacity:1">
</g></g></svg>